<svg xmlns="http://www.w3.org/2000/svg" viewBox="0 0 1200 400">
  <!-- Background gradient - dark theme -->
  <defs>
    <linearGradient id="skyGradient" x1="0%" y1="0%" x2="0%" y2="100%">
      <stop offset="0%" stop-color="#2a2a2a" />
      <stop offset="100%" stop-color="#3a3a3a" />
    </linearGradient>
    <linearGradient id="hillGradient" x1="0%" y1="0%" x2="100%" y2="0%">
      <stop offset="0%" stop-color="#6b5d44" />
      <stop offset="50%" stop-color="#7d6e53" />
      <stop offset="100%" stop-color="#6b5d44" />
    </linearGradient>
    <linearGradient id="roadGradient" x1="0%" y1="0%" x2="100%" y2="0%">
      <stop offset="0%" stop-color="#666666" />
      <stop offset="100%" stop-color="#555555" />
    </linearGradient>
    <linearGradient id="grassGradient" x1="0%" y1="0%" x2="100%" y2="0%">
      <stop offset="0%" stop-color="#4d5540" />
      <stop offset="100%" stop-color="#5a6349" />
    </linearGradient>
  </defs>
  
  <!-- Sky -->
  <rect width="1200" height="180" fill="url(#skyGradient)" />
  
  <!-- Hills -->
  <path d="M0,180 Q200,120 400,150 Q600,200 800,140 Q1000,110 1200,180 L1200,400 L0,400 Z" fill="url(#hillGradient)" />
  
  <!-- Grass areas -->
  <path d="M0,280 Q100,260 200,270 Q300,290 400,275 L400,400 L0,400 Z" fill="url(#grassGradient)" />
  <path d="M800,270 Q900,260 1000,280 Q1100,290 1200,270 L1200,400 L800,400 Z" fill="url(#grassGradient)" />
  
  <!-- Road -->
  <path d="M0,350 Q100,320 200,330 Q400,300 600,330 Q800,350 1000,330 Q1100,320 1200,350 L1200,400 L0,400 Z" fill="url(#roadGradient)" />
  
  <!-- Road markings -->
  <path d="M50,350 L100,340" stroke="white" stroke-width="4" stroke-dasharray="20,20" />
  <path d="M150,335 L250,325" stroke="white" stroke-width="4" stroke-dasharray="20,20" />
  <path d="M300,322 L400,325" stroke="white" stroke-width="4" stroke-dasharray="20,20" />
  <path d="M450,330 L550,335" stroke="white" stroke-width="4" stroke-dasharray="20,20" />
  <path d="M600,338 L700,345" stroke="white" stroke-width="4" stroke-dasharray="20,20" />
  <path d="M750,345 L850,340" stroke="white" stroke-width="4" stroke-dasharray="20,20" />
  <path d="M900,335 L1000,330" stroke="white" stroke-width="4" stroke-dasharray="20,20" />
  <path d="M1050,335 L1150,345" stroke="white" stroke-width="4" stroke-dasharray="20,20" />
  
  <!-- Road edge markings -->
  <path d="M0,370 Q100,340 200,350 Q400,320 600,350 Q800,370 1000,350 Q1100,340 1200,370" fill="none" stroke="white" stroke-width="2" />
  <path d="M0,330 Q100,300 200,310 Q400,280 600,310 Q800,330 1000,310 Q1100,300 1200,330" fill="none" stroke="white" stroke-width="2" />
  
  <!-- Roadside posts -->
  <g>
    <rect x="150" y="300" width="4" height="20" fill="#aaaaaa" />
    <rect x="150" y="300" width="4" height="6" fill="#aa0000" />
  </g>
  <g>
    <rect x="250" y="295" width="4" height="20" fill="#aaaaaa" />
    <rect x="250" y="295" width="4" height="6" fill="#aa0000" />
  </g>
  <g>
    <rect x="350" y="300" width="4" height="20" fill="#aaaaaa" />
    <rect x="350" y="300" width="4" height="6" fill="#aa0000" />
  </g>
  <g>
    <rect x="450" y="305" width="4" height="20" fill="#aaaaaa" />
    <rect x="450" y="305" width="4" height="6" fill="#aa0000" />
  </g>
  <g>
    <rect x="550" y="310" width="4" height="20" fill="#aaaaaa" />
    <rect x="550" y="310" width="4" height="6" fill="#aa0000" />
  </g>
  <g>
    <rect x="650" y="315" width="4" height="20" fill="#aaaaaa" />
    <rect x="650" y="315" width="4" height="6" fill="#aa0000" />
  </g>
  <g>
    <rect x="750" y="310" width="4" height="20" fill="#aaaaaa" />
    <rect x="750" y="310" width="4" height="6" fill="#aa0000" />
  </g>
  <g>
    <rect x="850" y="305" width="4" height="20" fill="#aaaaaa" />
    <rect x="850" y="305" width="4" height="6" fill="#aa0000" />
  </g>
  
  <!-- Road sign -->
  <g transform="translate(450, 250)">
    <polygon points="0,0 20,-10 40,0 30,30 10,30" fill="#aa0000" />
    <polygon points="5,5 35,5 25,25 15,25" fill="#dddddd" />
  </g>
  
  <!-- Direction signs -->
  <g transform="translate(100, 280)">
    <rect x="0" y="0" width="50" height="30" fill="#222222" />
    <polygon points="50,0 70,15 50,30" fill="#222222" />
    <line x1="10" y1="15" x2="40" y2="15" stroke="#dddddd" stroke-width="2" />
  </g>
  
  <!-- Utility poles -->
  <g transform="translate(650, 150)">
    <rect x="0" y="0" width="3" height="100" fill="#555555" />
    <rect x="-10" y="10" width="20" height="2" fill="#555555" />
  </g>
  <g transform="translate(850, 160)">
    <rect x="0" y="0" width="3" height="100" fill="#555555" />
    <rect x="-10" y="10" width="20" height="2" fill="#555555" />
  </g>
  <g transform="translate(1050, 170)">
    <rect x="0" y="0" width="3" height="100" fill="#555555" />
    <rect x="-10" y="10" width="20" height="2" fill="#555555" />
  </g>
  
  <!-- Trees/vegetation -->
  <g transform="translate(950, 280)">
    <path d="M0,0 C5,-10 10,-5 15,0 C20,-15 25,-5 30,0 C25,5 20,5 15,0 C10,5 5,5 0,0 Z" fill="#3a4a3a" />
    <path d="M0,10 C5,0 10,5 15,10 C20,-5 25,5 30,10 C25,15 20,15 15,10 C10,15 5,15 0,10 Z" fill="#4a5a4a" />
    <path d="M0,20 C5,10 10,15 15,20 C20,5 25,15 30,20 C25,25 20,25 15,20 C10,25 5,25 0,20 Z" fill="#3a4a3a" />
    <rect x="13" y="20" width="4" height="15" fill="#3a3a2a" />
  </g>
</svg>
