<svg xmlns="http://www.w3.org/2000/svg" viewBox="0 0 1200 600">
  <!-- Background gradient - dark theme -->
  <defs>
    <linearGradient id="seaGradient" x1="0%" y1="0%" x2="0%" y2="100%">
      <stop offset="0%" stop-color="#2a2a2a" />
      <stop offset="50%" stop-color="#354352" />
      <stop offset="100%" stop-color="#23303d" />
    </linearGradient>
    <linearGradient id="cliffGradient" x1="0%" y1="0%" x2="100%" y2="0%">
      <stop offset="0%" stop-color="#6b5d44" />
      <stop offset="50%" stop-color="#5d5036" />
      <stop offset="100%" stop-color="#6b5d44" />
    </linearGradient>
    <linearGradient id="birdBodyGradient" x1="0%" y1="0%" x2="100%" y2="0%">
      <stop offset="0%" stop-color="#6d5c46" />
      <stop offset="100%" stop-color="#5d4c36" />
    </linearGradient>
    <linearGradient id="birdHeadGradient" x1="0%" y1="0%" x2="100%" y2="0%">
      <stop offset="0%" stop-color="#dddddd" />
      <stop offset="100%" stop-color="#bbbbbb" />
    </linearGradient>
  </defs>
  
  <!-- Sea - taking up most of the image -->
  <rect width="1200" height="600" fill="url(#seaGradient)" />
  
  <!-- Distant sailboat -->
  <g transform="translate(1100, 120)">
    <polygon points="0,0 0,20 15,0" fill="#aaaaaa" />
    <rect x="7" y="-25" width="2" height="25" fill="#aaaaaa" />
  </g>
  
  <!-- Cliff - smaller portion at bottom -->
  <path d="M0,380 L1200,380 L1200,600 L0,600 Z" fill="url(#cliffGradient)" />
  <path d="M0,380 L1200,380 L1200,410 C1150,400 1100,415 1050,405 C1000,395 950,405 900,400 C850,395 800,410 750,405 C700,400 650,410 600,405 C550,400 500,415 450,405 C400,400 350,410 300,405 C250,400 200,415 150,405 C100,400 50,415 0,405 Z" fill="url(#cliffGradient)" />
  
  <!-- Small plant -->
  <g transform="translate(150, 430)">
    <path d="M0,0 C5,-10 10,-5 15,0 C20,-15 25,-5 30,0 C25,5 20,5 15,0 C10,5 5,5 0,0 Z" fill="#4a5a4a" />
    <path d="M0,10 C5,0 10,5 15,10 C20,-5 25,5 30,10 C25,15 20,15 15,10 C10,15 5,15 0,10 Z" fill="#3a4a3a" />
  </g>
  
  <!-- Bird sculpture positioning to match original better -->
  <!-- Bird sculpture legs -->
  <rect x="590" y="480" width="6" height="60" fill="#6d5c46" />
  <rect x="640" y="480" width="6" height="60" fill="#6d5c46" />
  
  <!-- Bird sculpture body -->
  <ellipse cx="620" cy="450" rx="90" ry="40" fill="url(#birdBodyGradient)" />
  
  <!-- Bird sculpture white stripe -->
  <path d="M590,430 Q620,420 650,430 Q620,455 590,430 Z" fill="#3a4552" />
  
  <!-- Bird sculpture band -->
  <path d="M560,450 Q620,470 680,450" stroke="#5d4c36" stroke-width="10" fill="none" />
  
  <!-- Bird sculpture head -->
  <circle cx="620" cy="370" r="50" fill="url(#birdHeadGradient)" />
  
  <!-- Bird sculpture beak -->
  <path d="M620,370 L680,380 L620,390 Z" fill="#aa7744" />
  <circle cx="660" cy="380" r="8" fill="#553322" />
  
  <!-- Texture lines on cliff -->
  <path d="M100,500 L200,500" stroke="#5d5036" stroke-width="2" />
  <path d="M300,550 L400,550" stroke="#5d5036" stroke-width="2" />
  <path d="M800,530 L900,530" stroke="#5d5036" stroke-width="2" />
  <path d="M700,470 L800,470" stroke="#5d5036" stroke-width="2" />
  <path d="M350,520 L450,520" stroke="#5d5036" stroke-width="2" />
  <path d="M880,480 L950,480" stroke="#5d5036" stroke-width="2" />
  <path d="M1000,500 L1100,500" stroke="#5d5036" stroke-width="2" />
</svg>
