<svg xmlns="http://www.w3.org/2000/svg" viewBox="0 0 262 110">
  <!-- Background gradient - dark theme -->
  <defs>
    <linearGradient id="bgGradient1" x1="0%" y1="0%" x2="100%" y2="100%">
      <stop offset="0%" stop-color="#333333" />
      <stop offset="100%" stop-color="#222222" />
    </linearGradient>
    <radialGradient id="glowEffect" cx="75%" cy="25%" r="50%" fx="75%" fy="25%">
      <stop offset="0%" stop-color="#444444" />
      <stop offset="100%" stop-color="#22222200" />
    </radialGradient>
  </defs>
  
  <!-- Background -->
  <rect width="262" height="110" fill="url(#bgGradient1)" />
  
  <!-- Subtle glow effect -->
  <circle cx="200" cy="30" r="80" fill="url(#glowEffect)" opacity="0.5" />
  
  <!-- Abstract path representing journey -->
  <path d="M0,85 Q70,60 130,80 T262,70" fill="none" stroke="#666666" stroke-width="4" opacity="0.7" />
  <path d="M0,95 Q65,70 131,90 T262,80" fill="none" stroke="#555555" stroke-width="2" opacity="0.5" />
  
  <!-- Abstract knowledge elements -->
  <circle cx="50" cy="40" r="5" fill="#777777" opacity="0.8" />
  <circle cx="95" cy="35" r="3" fill="#777777" opacity="0.7" />
  <circle cx="140" cy="45" r="4" fill="#777777" opacity="0.6" />
  <circle cx="185" cy="40" r="3" fill="#777777" opacity="0.7" />
  <circle cx="230" cy="50" r="5" fill="#777777" opacity="0.8" />
  
  <!-- Connection lines -->
  <path d="M50,40 L95,35 L140,45 L185,40 L230,50" stroke="#777777" stroke-width="1" opacity="0.5" fill="none" />
  
  <!-- Stylized figure representing human element -->
  <g transform="translate(131,60)">
    <circle cx="0" cy="-10" r="6" fill="#999999" /> <!-- Head -->
    <path d="M0,-4 L0,6" stroke="#999999" stroke-width="2" /> <!-- Body -->
    <path d="M-10,4 L0,0 L10,4" fill="none" stroke="#999999" stroke-width="1.5" /> <!-- Arms -->
    <path d="M-8,16 L0,6 L8,16" fill="none" stroke="#999999" stroke-width="1.5" /> <!-- Legs -->
  </g>
  
  <!-- Abstract elements representing stories and knowledge -->
  <rect x="30" y="60" width="20" height="15" rx="2" fill="#888888" opacity="0.6" />
  <rect x="210" y="65" width="25" height="18" rx="2" fill="#888888" opacity="0.6" />
</svg>
